<svg width="60" height="60" viewBox="0 0 60 60" fill="none" xmlns="http://www.w3.org/2000/svg">
<path d="M17.45 8.2628L30 1.14946L42.55 8.2628L54.9853 15.5747L55.1 30L54.9853 44.4253L42.55 51.7372L30 58.8505L17.45 51.7372L5.0147 44.4253L4.90003 30L5.0147 15.5747L17.45 8.2628Z" stroke="#4AFFA8" stroke-width="2"/>
<path d="M23.128 18.144C23.032 18.144 23 18.208 23 18.272V27.648C23 27.744 23.032 27.808 23.128 27.808H26.872C26.968 27.808 27 27.744 27 27.648V22.176H29.464C30.008 22.176 30.392 22.208 30.584 22.304C31.896 22.816 32.568 23.776 32.568 25.248V25.76C32.568 25.952 32.504 26.24 32.44 26.656C31.896 28.128 31.064 28.864 29.88 28.864H23.128C23.032 28.864 23 28.896 23 28.992V39.776C23 39.872 23.032 39.904 23.128 39.904H26.872C26.968 39.904 27 39.872 27 39.776V32.8H29.24L34.328 39.904H38.68L38.84 39.84L33.56 32.032V31.968H33.624C35.736 30.464 36.792 28.416 36.792 25.824V25.344C36.792 24.128 36.568 22.976 36.088 21.952C35.064 19.424 32.92 18.144 29.752 18.144H23.128Z" fill="#4AFFA8"/>
</svg>
